<svg width="96" height="96" viewBox="0 0 96 96" fill="none" xmlns="http://www.w3.org/2000/svg">
  <path d="M48 20V30" stroke="#9AB8FF" stroke-width="5" stroke-linecap="round"/>
  <circle cx="48" cy="17" r="5" fill="#FFD057"/>
  <rect x="22" y="26" width="52" height="40" rx="12" fill="#F46A9A" stroke="#153C93" stroke-width="5"/>
  <rect x="16" y="38" width="12" height="14" rx="6" fill="#C3A7FF" stroke="#153C93" stroke-width="5"/>
  <rect x="68" y="38" width="12" height="14" rx="6" fill="#C3A7FF" stroke="#153C93" stroke-width="5"/>
  <circle cx="37" cy="44" r="5" fill="#153C93"/>
  <circle cx="59" cy="44" r="5" fill="#153C93"/>
  <circle cx="37" cy="44" r="2" fill="#7C6CF5"/>
  <circle cx="59" cy="44" r="2" fill="#7C6CF5"/>
  <path d="M36 56C39.5 60 44 62 48 62C52 62 56.5 60 60 56" stroke="white" stroke-width="5" stroke-linecap="round"/>
  <path d="M25 66V73C25 76.3137 27.6863 79 31 79H44" stroke="#9AB8FF" stroke-width="5" stroke-linecap="round"/>
  <rect x="42" y="73" width="12" height="8" rx="4" fill="#7C6CF5" stroke="#153C93" stroke-width="4"/>
</svg>
