<svg width="512" height="512" viewBox="0 0 512 512" fill="none" xmlns="http://www.w3.org/2000/svg">
  <path d="M64 128C64 92.6538 92.6538 64 128 64H384C419.346 64 448 92.6538 448 128V384C448 419.346 419.346 448 384 448H128C92.6538 448 64 419.346 64 384V128Z" fill="white" fill-opacity="0"/>
  <path d="M105 150C105 126.804 123.804 108 147 108H365C388.196 108 407 126.804 407 150V362C407 385.196 388.196 404 365 404H147C123.804 404 105 385.196 105 362V150Z" fill="white" fill-opacity="0"/>
  <path d="M116 372V173.047L208.752 242.117L256 281L303.248 242.117L396 173.047V372C396 385.255 385.255 396 372 396H140C126.745 396 116 385.255 116 372Z" fill="#EA4335"/>
  <path d="M116 139.565C116 126.811 130.437 119.479 140.706 126.949L256 210.869L371.294 126.949C381.563 119.479 396 126.811 396 139.565V173.047L303.248 242.117L256 207.633L208.752 242.117L116 173.047V139.565Z" fill="#FF3D31"/>
  <path d="M116 173.047L170.161 213.247L116 275.609V173.047Z" fill="#C5221F"/>
  <path d="M396 173.047L341.839 213.247L396 275.609V173.047Z" fill="#C5221F"/>
  <path d="M116 372V275.609L203.98 210.285L256 248.334L308.02 210.285L396 275.609V372C396 385.255 385.255 396 372 396H140C126.745 396 116 385.255 116 372Z" fill="#EA4335"/>
</svg>
