<svg width="512" height="512" viewBox="0 0 512 512" fill="none" xmlns="http://www.w3.org/2000/svg">
  <circle cx="256" cy="256" r="256" fill="#FF5B0A"/>
  <path d="M366.868 226.895C351.501 226.895 338.217 234.62 331.102 245.95C311.964 233.249 286.044 225.394 257.913 224.709L271.777 163.285L314.52 172.254C315.088 184.53 325.214 194.354 337.627 194.354C350.404 194.354 360.761 183.997 360.761 171.219C360.761 158.442 350.404 148.085 337.627 148.085C328.374 148.085 320.407 153.551 316.723 161.415L267.001 150.984C263.121 150.153 259.329 152.592 258.448 156.452L242.495 226.902C214.66 227.661 189.062 235.489 170.099 248.096C162.96 236.249 149.448 228.114 133.667 228.114C111.14 228.114 92.8809 246.373 92.8809 268.899C92.8809 285.436 102.704 299.674 116.835 306.062C116.454 309.09 116.248 312.17 116.248 315.301C116.248 370.732 179.016 415.605 256.436 415.605C333.856 415.605 396.624 370.732 396.624 315.301C396.624 312.655 396.477 310.027 396.201 307.424C411.259 301.412 421.901 286.707 421.901 269.509C421.901 246.983 403.641 228.724 381.115 228.724L366.868 226.895Z" fill="white" fill-opacity="0"/>
  <path d="M337.411 329.18C331.302 337.188 316.544 350.372 286.564 350.372C256.584 350.372 241.825 337.188 235.716 329.18C233.633 326.439 229.731 325.92 227.008 328.011C224.266 330.103 223.738 333.997 225.838 336.739C233.666 346.997 251.794 362.806 286.564 362.806C321.333 362.806 339.462 346.997 347.29 336.739C349.39 333.997 348.862 330.103 346.119 328.011C343.378 325.92 339.494 326.439 337.411 329.18Z" fill="white"/>
  <circle cx="221.608" cy="281.124" r="21.3735" fill="#FF5B0A"/>
  <circle cx="322.844" cy="281.124" r="21.3735" fill="#FF5B0A"/>
  <path d="M286.202 240.948C211.727 240.948 151.347 275.717 151.347 318.62C151.347 361.523 211.727 396.293 286.202 396.293C360.676 396.293 421.056 361.523 421.056 318.62C421.056 275.717 360.676 240.948 286.202 240.948ZM200.234 302.497C188.424 302.497 178.847 292.92 178.847 281.11C178.847 269.299 188.424 259.723 200.234 259.723C212.045 259.723 221.621 269.299 221.621 281.11C221.621 292.92 212.045 302.497 200.234 302.497ZM311.904 349.345C305.802 357.353 291.061 370.536 261.08 370.536C231.1 370.536 216.342 357.353 210.232 349.345C208.141 346.603 208.677 342.709 211.411 340.618C214.162 338.526 218.055 339.062 220.146 341.804C226.247 349.812 240.997 362.996 270.986 362.996C300.966 362.996 315.725 349.812 321.826 341.804C323.917 339.062 327.811 338.526 330.544 340.618C333.286 342.709 333.995 346.603 311.904 349.345ZM312.17 302.497C300.36 302.497 290.783 292.92 290.783 281.11C290.783 269.299 300.36 259.723 312.17 259.723C323.981 259.723 333.557 269.299 333.557 281.11C333.557 292.92 323.981 302.497 312.17 302.497Z" fill="white"/>
</svg>
