<svg width="96" height="96" viewBox="0 0 96 96" fill="none" xmlns="http://www.w3.org/2000/svg">
  <rect width="96" height="96" rx="20" fill="#F8FAFC"/>
  <path d="M23 20C23 16.6863 25.6863 14 29 14H56.5L73 30.5V66C73 69.3137 70.3137 72 67 72H29C25.6863 72 23 69.3137 23 66V20Z" stroke="#0B0B0B" stroke-width="6"/>
  <path d="M56 14V26C56 29.3137 58.6863 32 62 32H73" stroke="#0B0B0B" stroke-width="6"/>
  <circle cx="47" cy="36" r="7" stroke="#0B0B0B" stroke-width="5"/>
  <path d="M34 57C34 49.8203 39.8203 44 47 44C54.1797 44 60 49.8203 60 57V59H34V57Z" stroke="#0B0B0B" stroke-width="5" stroke-linejoin="round"/>
  <circle cx="37" cy="68" r="2.8" fill="#0B0B0B"/>
  <circle cx="47" cy="68" r="2.8" fill="#0B0B0B"/>
  <circle cx="57" cy="68" r="2.8" fill="#0B0B0B"/>
  <path d="M32 77H57" stroke="#0B0B0B" stroke-width="5" stroke-linecap="round"/>
  <path d="M67 55C71.9051 55 76 59.0949 76 64V74.5C76 77.8154 74.1301 80.8466 71.168 82.332L68 83.9196L64.832 82.332C61.8699 80.8466 60 77.8154 60 74.5V64C60 59.0949 64.0949 55 69 55H67Z" fill="#37C9D0"/>
  <path d="M64.5 69.5L67.5 72.5L73 66.5" stroke="white" stroke-width="4.5" stroke-linecap="round" stroke-linejoin="round"/>
</svg>
