<svg width="512" height="512" viewBox="0 0 512 512" fill="none" xmlns="http://www.w3.org/2000/svg">
  <rect width="512" height="512" rx="96" fill="#25D366"/>
  <path d="M256.144 118C181.692 118 121.31 178.36 121.31 252.799C121.31 282.458 130.824 309.87 148.312 332.148L132 394L195.352 377.412C216.786 389.053 241.38 395.599 267.448 395.599C341.89 395.599 402.253 335.237 402.253 260.799C402.253 186.36 341.89 126 267.448 126L256.144 118Z" fill="white" fill-opacity="0"/>
  <path d="M264.928 113C192.957 113 134.607 171.342 134.607 243.297C134.607 271.966 143.803 298.487 160.702 320.048L144.935 379.846L206.174 363.811C226.889 375.056 250.655 381.381 275.848 381.381C347.819 381.381 406.17 323.039 406.17 251.084C406.17 179.129 347.819 120.787 275.848 120.787L264.928 113Z" fill="white"/>
  <path d="M275.572 160.959C230.822 160.959 194.552 197.223 194.552 241.964C194.552 257.19 198.764 271.431 206.084 283.592L197.321 315.615L230.314 306.978C241.868 313.698 255.298 317.557 269.589 317.557C314.339 317.557 350.609 281.293 350.609 236.552C350.609 191.812 314.339 155.547 269.589 155.547L275.572 160.959Z" fill="#25D366"/>
  <path d="M243.018 211.828C241.108 207.557 239.104 207.465 237.324 207.393C235.861 207.334 234.189 207.334 232.518 207.334C230.846 207.334 228.129 207.951 225.83 210.422C223.532 212.893 217.053 218.968 217.053 231.365C217.053 243.761 226.039 255.742 227.292 257.414C228.546 259.085 244.946 285.453 270.896 295.699C292.472 304.223 296.884 302.524 301.59 302.089C306.296 301.653 316.781 295.991 318.871 290.174C320.962 284.357 320.962 279.358 320.344 278.313C319.727 277.268 318.047 276.642 315.54 275.389C313.034 274.135 300.763 268.11 298.465 267.274C296.167 266.438 294.488 266.021 292.816 268.527C291.145 271.034 286.337 276.643 284.876 278.313C283.414 279.985 281.951 280.193 279.444 278.94C276.937 277.687 268.861 275.044 259.279 266.519C251.815 259.875 246.781 251.674 245.318 249.167C243.856 246.661 245.163 245.304 246.418 244.053C247.545 242.929 248.925 241.123 250.179 239.661C251.433 238.198 251.851 237.154 252.687 235.482C253.523 233.81 253.105 232.349 252.478 231.095C251.851 229.842 246.82 217.549 244.785 212.733C243.168 208.88 241.526 209.352 240.211 209.286L243.018 211.828Z" fill="white"/>
</svg>
