<svg width="320" height="92" viewBox="0 0 320 92" fill="none" xmlns="http://www.w3.org/2000/svg">
  <g transform="translate(8 10)">
    <circle cx="40" cy="36" r="8.8" fill="#B9C6FF"/>

    <circle cx="40" cy="6" r="4.8" fill="#0FC21F"/>
    <path d="M40 13.8V24" stroke="#8BE000" stroke-width="4.8" stroke-linecap="round"/>

    <circle cx="61.2" cy="14.8" r="4.8" fill="#D8F77B"/>
    <path d="M56.1 19.9L48.9 27.1" stroke="#E2F113" stroke-width="4.8" stroke-linecap="round"/>

    <circle cx="70" cy="36" r="4.8" fill="#17D1A7"/>
    <path d="M62.2 36H52" stroke="#18D4A8" stroke-width="4.8" stroke-linecap="round"/>

    <circle cx="61.2" cy="57.2" r="4.8" fill="#E2FF6C"/>
    <path d="M56.1 52.1L48.9 44.9" stroke="#E4F225" stroke-width="4.8" stroke-linecap="round"/>

    <circle cx="40" cy="66" r="4.8" fill="#F0C83A"/>
    <path d="M40 58.2V48" stroke="#19CAA7" stroke-width="4.8" stroke-linecap="round"/>

    <circle cx="18.8" cy="57.2" r="4.8" fill="#80C800"/>
    <path d="M23.9 52.1L31.1 44.9" stroke="#7CC500" stroke-width="4.8" stroke-linecap="round"/>

    <circle cx="10" cy="36" r="4.8" fill="#9F1BFF"/>
    <path d="M17.8 36H28" stroke="#8EE100" stroke-width="4.8" stroke-linecap="round"/>

    <circle cx="18.8" cy="14.8" r="4.8" fill="#9BEA00"/>
    <path d="M23.9 19.9L31.1 27.1" stroke="#86D600" stroke-width="4.8" stroke-linecap="round"/>
  </g>

  <text
    x="102"
    y="67"
    fill="#FFFFFF"
    font-family="'Baloo 2', 'Comic Sans MS', 'Trebuchet MS', cursive"
    font-size="64"
    font-weight="700"
    letter-spacing="0.6"
  >
    Outly
  </text>
</svg>
